<?xml version="1.0" standalone="no"?>
<!DOCTYPE svg PUBLIC "-//W3C//DTD SVG 20010904//EN"
 "http://www.w3.org/TR/2001/REC-SVG-20010904/DTD/svg10.dtd">
<svg version="1.0" xmlns="http://www.w3.org/2000/svg"
 width="502.000000pt" height="579.000000pt" viewBox="0 0 502.000000 579.000000"
 preserveAspectRatio="xMidYMid meet">
<metadata>
Created by potrace 1.16, written by Peter Selinger 2001-2019
</metadata>
<g transform="translate(0.000000,579.000000) scale(0.100000,-0.100000)"
fill="#f1b347" stroke="none">
<path d="M2165 5235 c-373 -51 -726 -184 -1040 -391 -324 -213 -605 -511 -788
-835 -313 -552 -403 -1160 -269 -1804 4 -22 13 -40 19 -40 10 0 81 99 443 623
58 83 111 152 118 152 6 0 59 -72 117 -160 133 -204 129 -196 116 -228 -5 -15
-91 -272 -190 -572 -99 -300 -183 -553 -186 -562 -12 -29 18 -21 36 10 9 15
39 59 66 97 47 66 170 243 723 1040 130 187 335 482 455 655 120 173 327 470
458 660 131 190 244 345 250 345 10 0 277 -379 603 -855 47 -69 114 -165 148
-215 282 -403 606 -877 606 -884 0 -5 -26 -51 -58 -102 -32 -52 -135 -218
-229 -369 -94 -151 -246 -395 -337 -542 -91 -148 -166 -270 -166 -273 0 -15
43 11 297 178 362 239 578 381 738 485 l129 84 18 -22 c10 -12 73 -107 140
-211 67 -104 124 -189 127 -189 12 0 144 214 200 324 256 500 333 1069 221
1643 -96 490 -391 1004 -770 1338 -373 329 -782 526 -1270 611 -130 23 -584
28 -725 9z"/>
</g>
</svg>
