<svg width="1067" height="164" viewBox="0 0 1067 164" fill="none" xmlns="http://www.w3.org/2000/svg">
<path d="M375.7 81.6C375.6 21.4 375.8 1.39998 376.7 0.899979C377.6 0.299973 381.8 0.299973 385.7 0.899979C386.3 0.999985 439.4 60 444.3 66.1C445.6 67.7 447.2 69 448 69C448.7 69 454.2 63.5 460.1 56.8C493.2 19.5 506 5.19998 508.5 2.89998C511.1 0.399979 513.7 -0.100021 519.8 0.899979C520.2 0.899979 520.4 37.1 520.3 81.2L520 161.5H504.5H489L488.7 118.2C488.6 93.2998 488.1 75 487.6 75C487.1 75 483.8 78 480.3 81.7C476.8 85.4 470.1 92.5 465.4 97.5C460.7 102.4 455 108.5 452.8 110.9L448.8 115.3L446.4 113.4C445.1 112.4 436.4 103.4 427 93.4C417.7 83.4 409.4 75.2 408.8 75.1C407.8 75 407.5 84.5998 407.3 118.2L407 161.5H391.5H376L375.7 81.6Z" fill="#FF8300"/>
<path d="M556.3 82C556.1 38 556.2 1.49998 556.3 0.999985C556.6 0.299988 558.9 0 561.8 0.199997L566.9 0.499985L580 15.1C587.1 23.1 600.9 38.6 610.5 49.4C620.1 60.2 628.3 69 628.7 69C629.3 69 638.9 58.4 677 15.7L691 -1.52588e-05H695.8H700.5V81V162.1L684.8 161.8L669 161.5L668.5 118.1L668 74.7L661.9 81.1C658.6 84.6 650.1 93.6 643.1 101C636 108.4 629.7 114.6 629 114.8C628.3 115 619.3 106.2 609 95.3C598.7 84.4 589.9 75.5 589.4 75.5C588.8 75.5 588.3 91.9999 588.2 118.5L588 161.5L572.3 161.8L556.5 162.1L556.3 82Z" fill="#FF8300"/>
<path d="M968.2 4.79997C971.4 3.29997 974.9 2 976 1.7C988.5 -1.3 1003.1 4.99998 1006.4 14.9C1009.4 23.9 1007.2 30.8 996.1 47.8C991.4 55.1 987.7 61.5 988 62.1C988.4 62.6 993 63 998.5 63C1006.5 63 1008.4 63.3 1008.9 64.6C1009.9 67.3 1009.5 75.6 1008.3 76.8C1006.6 78.5 960.5 78.5 960.5 76.8C960.5 76.2 966.7 65.9 974.2 54.1C988.4 31.6 991.5 26.2 991.5 23.5C991.5 22.6 990.2 20.5 988.6 18.9C985.1 15.4 982.2 15.3 974.5 18.1C971.5 19.2 968.2 20.3 967.3 20.6C966 21.1 965.4 20.3 964.6 17.3C961.8 7.09998 961.7 7.59998 968.2 4.79997Z" fill="#FF8300"/>
<path d="M103.9 41.3C107.8 21.3 119.8 8.19998 138.3 3.49998C146.3 1.49998 163.5 2.09998 175.1 4.89998C180.2 6.09998 185 7.69997 185.8 8.29997C187.2 9.39998 187.2 10.9 185.6 23.7C184.7 31.5 183.6 38.2 183.3 38.5C183 38.8 179.2 37.9 174.9 36.4C168.3 34.1 165.2 33.6 156 33.6C146.2 33.5 144.7 33.7 141.9 35.7C137.9 38.6 135.5 43.6 135.5 49.2C135.5 56.8 140.1 61.4 152.5 66.1C188.4 79.6 202.6 97.7998 198 124.3C196.4 133.5 194 139 188.7 145.7C177.9 159.2 160.5 165 137.1 162.9C127.3 162 116.1 158.9 106 154.5C100.3 152 100.3 151.9 100.9 148.2C101.2 146.2 102.2 138.9 103.1 132C104 125.1 104.8 119.4 105 119.2C105.1 119 108.1 120.5 111.6 122.4C126.7 130.6 149.2 133.7 158 128.7C165.5 124.5 168.4 116.7 165 110.1C162.8 105.7 158.4 102.5 149.8 99.1C119.2 86.7 106.8 75.4 103.4 56.7C102.4 51.1 102.4 48.8 103.9 41.3Z" fill="#FF8300"/>
<path d="M937.5 22.2C937.5 20.6 942.9 4.79997 944.1 2.79997C944.4 2.39998 947.1 1.99998 950.2 1.99998C955.4 1.99998 955.7 2.09999 955.2 4.2C953.6 10.9 953.3 14 954.4 14C955 14 955.5 15.3 955.5 17C955.5 19 955 20 954 20C953.2 20 952.1 20.9 951.5 22C950.6 23.7 949.4 24 944 24C938.4 24 937.5 23.7 937.5 22.2Z" fill="#FF8300"/>
<path d="M0 160.7V81.2V1.70003L39.3 1.90004L78.5 2.20003V17.2V32.2L55 32.7L31.5 33.2V49.2V65.2L52 65.7L72.5 66.2L72.8 81.4L73.1 96.7L52.3 96.9L31.5 97.2L31.2 112.9L30.9 128.7L55.7 128.9L80.5 129.2L80.8 144.9L81.1 160.7H40.5H0Z" fill="#FF8300"/>
<path d="M225.5 57.6C225.5 28.3 225.8 4 226.2 3.7C226.5 3.3 233.5 2.99998 241.7 2.99998H256.5V53.9C256.5 81.8 256.8 106.8 257.1 109.4C257.5 112 259.2 116.4 260.9 119.3C265 126.1 273.8 131 282 131C292.5 131 301.5 125.8 306.1 117C307.9 113.7 308 109.7 308.5 58.5L309 3.49998H324H339V61.5V119.5L336.7 126.3C333.7 134.7 327.8 143.7 321.7 149C316.6 153.3 305.7 159 298.5 161.1C291.7 163.1 273.2 162.8 266 160.6C250.6 156 238.1 146.1 231.9 133.5C225.8 121.2 225.5 117.1 225.5 57.6Z" fill="#FF8300"/>
<path d="M738.5 162V82.5V2.99998H753.5H768.5V82.5V162H753.5H738.5Z" fill="#FF8300"/>
<path d="M792.5 34V18.5V2.99998H847.5H902.5V18.5V34H883H863.5L863.3 97.7L863 161.5H847.5H832L831.8 99.5C831.6 65.4 831.5 36.7 831.5 35.7C831.5 34.1 829.9 34 812 34H792.5Z" fill="#FF8300"/>
<path d="M1043.94 76.4C1040.65 76.4 1037.53 75.7258 1034.58 74.3772C1031.64 73.0046 1029.04 70.8493 1026.76 67.9114C1024.49 64.9735 1022.7 61.1446 1021.4 56.4247C1020.11 51.7048 1019.48 45.9856 1019.5 39.2669C1019.52 33.2708 1020.11 27.8766 1021.26 23.0844C1022.44 18.2923 1024.1 14.2105 1026.24 10.8392C1028.41 7.46783 1030.99 4.89115 1034 3.10915C1037.01 1.30307 1040.36 0.400024 1044.05 0.400024C1048.19 0.400024 1051.84 1.44755 1055 3.54261C1058.15 5.63767 1060.67 8.44312 1062.54 11.959C1064.43 15.4507 1065.53 19.3037 1065.84 23.5179H1050.76C1050.41 21.4228 1049.6 19.8937 1048.34 18.9304C1047.09 17.9431 1045.66 17.4495 1044.05 17.4495C1040.84 17.4495 1036.97 22.94 1036.97 22.94C1036.97 22.94 1034.73 31.4165 1034.69 37.3886H1035.02C1035.74 35.125 1036.82 33.1865 1038.27 31.573C1039.72 29.9596 1041.4 28.7194 1043.33 27.8525C1045.26 26.9856 1047.29 26.5521 1049.44 26.5521C1052.85 26.5521 1055.83 27.5635 1058.38 29.5863C1060.95 31.6091 1062.95 34.3785 1064.38 37.8943C1065.81 41.4102 1066.52 45.4317 1066.5 49.959C1066.52 55.2568 1065.56 59.8924 1063.64 63.8658C1061.73 67.8392 1059.08 70.9216 1055.69 73.113C1052.29 75.3043 1048.38 76.4 1043.94 76.4ZM1043.83 61.2289C1045.35 61.2289 1046.7 60.7714 1047.87 59.8563C1049.06 58.9412 1049.99 57.689 1050.65 56.0996C1051.33 54.5103 1051.66 52.7042 1051.64 50.6814C1051.66 48.6345 1051.33 46.8284 1050.65 45.2631C1049.99 43.6738 1049.06 42.4216 1047.87 41.5065C1046.7 40.5914 1045.35 40.1339 1043.83 40.1339C1042.71 40.1339 1041.67 40.3988 1040.72 40.9285C1039.78 41.4342 1038.96 42.1687 1038.27 43.132C1037.57 44.0711 1037.02 45.1909 1036.62 46.4913C1036.23 47.7676 1036.03 49.1643 1036.01 50.6814C1036.03 52.7042 1036.38 54.5103 1037.06 56.0996C1037.74 57.689 1038.66 58.9412 1039.84 59.8563C1041.01 60.7714 1042.34 61.2289 1043.83 61.2289Z" fill="#FF8300"/>
</svg>
