<svg width="663" height="569" viewBox="0 0 663 569" fill="none" xmlns="http://www.w3.org/2000/svg">
<path d="M407.618 568.192C407.763 568.167 407.956 568.113 408.206 568.021C409.222 567.648 410.959 566.732 413.796 565.029C419.452 561.636 429.342 555.209 446.278 544.073V544.074C494.544 512.208 523.345 493.273 544.68 479.405L561.88 468.206L562.256 467.961L562.54 468.308L564.939 471.242C565.633 472.076 568.085 475.671 571.453 480.748C574.838 485.85 579.172 492.486 583.64 499.421C588.105 506.352 592.237 512.65 595.302 517.213C596.834 519.495 598.097 521.34 599.002 522.614C599.455 523.252 599.815 523.742 600.071 524.069C600.13 524.144 600.18 524.209 600.226 524.264C600.244 524.247 600.264 524.229 600.285 524.209C600.482 524.018 600.742 523.722 601.062 523.323C601.699 522.529 602.539 521.37 603.532 519.921C605.517 517.026 608.097 513.008 610.861 508.528C616.391 499.567 622.65 488.781 626.374 481.465L626.375 481.463C660.189 415.42 670.547 340.331 656.141 264.512L655.796 262.721C643.117 198.006 604.352 130.13 554.47 85.6465L553.289 84.5996C503.624 40.7936 449.175 14.5674 384.2 3.25H384.199C375.579 1.72491 356.153 0.791024 336.497 0.557621C316.845 0.32426 297.046 0.792554 287.687 2.05371H287.688C238.029 8.84352 191.033 26.5495 149.229 54.1084L149.228 54.1094C106.091 82.4674 68.6806 122.143 44.3213 165.271V165.271C2.65062 238.761 -9.3342 319.703 8.50879 405.456H8.50977L8.51172 405.469C8.77168 406.898 9.1927 408.188 9.63672 409.107C9.85974 409.569 10.0792 409.919 10.2734 410.145C10.3999 410.291 10.4847 410.352 10.5273 410.376C10.5464 410.365 10.5744 410.349 10.6094 410.323C10.7312 410.233 10.9027 410.08 11.1348 409.84C11.5971 409.361 12.2523 408.59 13.1641 407.429C14.9853 405.11 17.796 401.284 22.0791 395.268C30.6434 383.238 45.0744 362.474 69.208 327.54L69.21 327.538C73.0795 322.001 76.7842 316.927 79.6406 313.235C81.068 311.391 82.2887 309.884 83.2139 308.837C83.6751 308.315 84.0711 307.897 84.3877 307.606C84.5451 307.462 84.6948 307.338 84.8301 307.248C84.8977 307.203 84.9715 307.159 85.0488 307.126C85.1215 307.094 85.2281 307.058 85.3525 307.058C85.4908 307.058 85.6046 307.106 85.6699 307.139C85.7433 307.175 85.8127 307.222 85.875 307.269C86.0002 307.362 86.1405 307.49 86.29 307.64C86.5913 307.942 86.9744 308.377 87.4258 308.923C88.3307 310.017 89.5372 311.593 90.9561 313.529C93.7953 317.404 97.5 322.744 101.37 328.616L101.372 328.618C110.226 342.199 114.549 348.767 116.432 352.465C117.374 354.316 117.746 355.523 117.728 356.575C117.709 357.615 117.299 358.455 116.886 359.472C116.145 361.694 104.714 395.858 91.5615 435.715C78.3615 475.715 67.161 509.449 66.7607 510.649L66.7549 510.666L66.748 510.683C66.5594 511.139 66.4637 511.499 66.4316 511.771C66.3992 512.048 66.4358 512.201 66.4717 512.273C66.499 512.329 66.5332 512.358 66.5996 512.376C66.6836 512.399 66.8314 512.403 67.0547 512.342C67.502 512.22 68.1092 511.873 68.7637 511.282C69.411 510.698 70.0793 509.898 70.6543 508.907L70.6572 508.9C71.8688 506.881 75.88 500.999 79.4785 495.935H79.4795C85.7439 487.138 102.142 463.541 175.876 357.272C193.209 332.339 220.542 293.006 236.542 269.939C252.543 246.871 280.142 207.273 297.608 181.94C306.343 169.271 314.478 157.768 320.531 149.431C323.557 145.263 326.065 141.883 327.867 139.544C328.768 138.375 329.496 137.462 330.026 136.838C330.291 136.527 330.513 136.281 330.687 136.108C330.772 136.023 330.856 135.946 330.935 135.887C330.973 135.857 331.021 135.823 331.075 135.795C331.119 135.772 331.221 135.725 331.353 135.725C331.533 135.725 331.671 135.814 331.715 135.843C331.783 135.888 331.85 135.944 331.913 136.001C332.04 136.116 332.195 136.277 332.371 136.475C332.726 136.872 333.206 137.456 333.801 138.211C334.992 139.723 336.666 141.951 338.769 144.816C342.976 150.549 348.912 158.853 356.162 169.137C370.664 189.706 390.431 218.208 412.165 249.942L412.166 249.943C415.298 254.542 419.097 260.04 422.681 265.224C426.261 270.403 429.628 275.269 431.896 278.604C450.696 305.473 470.898 334.707 486.398 357.342C494.149 368.659 500.725 378.327 505.363 385.225C507.682 388.673 509.519 391.431 510.775 393.356C511.403 394.318 511.889 395.076 512.218 395.608C512.382 395.874 512.509 396.089 512.598 396.247C512.641 396.325 512.68 396.397 512.708 396.457C512.722 396.487 512.737 396.521 512.75 396.558C512.757 396.578 512.786 396.659 512.786 396.758C512.786 396.882 512.751 397.008 512.723 397.098C512.69 397.201 512.644 397.32 512.59 397.449C512.48 397.709 512.322 398.042 512.124 398.434C511.727 399.219 511.156 400.269 510.454 401.505C509.401 403.361 508.048 405.647 506.536 408.11L504.977 410.624C500.706 417.563 486.975 439.693 474.444 459.822C465.044 474.923 451.295 496.997 439.889 515.359L429.512 532.088C423.445 541.954 417.912 550.953 413.896 557.535C411.888 560.826 410.26 563.512 409.135 565.399C408.572 566.343 408.135 567.085 407.841 567.603C407.693 567.862 407.584 568.061 407.512 568.198C407.51 568.201 407.509 568.203 407.508 568.205C407.538 568.202 407.575 568.2 407.618 568.192Z" stroke="white"/>
</svg>
