<svg width="1515" height="213" viewBox="0 0 1515 213" fill="none" xmlns="http://www.w3.org/2000/svg">
<path d="M595.639 106.422C595.508 27.9098 595.769 1.8259 596.94 1.1738C598.112 0.391281 603.58 0.391281 608.658 1.1738C609.439 1.30421 678.572 78.2518 684.952 86.2074C686.644 88.2941 688.727 89.9895 689.769 89.9895C690.68 89.9895 697.841 82.8164 705.522 74.0783C748.616 25.4318 765.281 6.78181 768.536 3.78217C771.921 0.521683 775.306 -0.130402 783.248 1.1738C783.769 1.1738 784.029 48.3856 783.899 105.901L783.508 210.627H763.328H743.148L742.758 154.156C742.627 121.681 741.976 97.8147 741.326 97.8147C740.675 97.8147 736.378 101.727 731.821 106.553C727.265 111.378 718.542 120.638 712.422 127.159C706.303 133.55 698.882 141.505 696.018 144.635L690.81 150.374L687.686 147.896C685.993 146.591 674.666 134.854 662.428 121.812C650.32 108.77 639.514 98.0755 638.733 97.9451C637.431 97.8147 637.04 110.335 636.78 154.156L636.389 210.627H616.209H596.029L595.639 106.422Z" fill="#FF8300"/>
<path d="M830.769 106.944C830.508 49.5594 830.638 1.9563 830.769 1.3042C831.159 0.391266 834.154 3.05176e-05 837.929 0.260864L844.569 0.6521L861.625 19.6934C870.868 30.127 888.835 50.342 901.334 64.4273C913.832 78.5126 924.508 89.9895 925.029 89.9895C925.81 89.9895 938.309 76.1651 987.913 20.4759L1006.14 3.05176e-05H1012.39H1018.51V105.64V211.41L998.068 211.019L977.497 210.627L976.846 154.025L976.195 97.4234L968.253 105.77C963.957 110.335 952.891 122.073 943.777 131.724C934.533 141.375 926.331 149.461 925.42 149.722C924.508 149.982 912.791 138.506 899.381 124.29C885.971 110.074 874.514 98.4668 873.863 98.4668C873.082 98.4668 872.431 119.986 872.301 154.547L872.04 210.627L851.6 211.019L831.029 211.41L830.769 106.944Z" fill="#FF8300"/>
<path d="M241.771 53.8633C246.849 27.7794 262.472 10.6944 286.558 4.5647C296.974 1.9563 319.367 2.73882 334.47 6.39056C341.109 7.9556 347.359 10.0423 348.4 10.8248C350.223 12.2594 350.223 14.2158 348.14 30.9095C346.968 41.0822 345.536 49.8203 345.145 50.2115C344.755 50.6028 339.807 49.429 334.209 47.4727C325.616 44.4731 321.58 43.821 309.603 43.821C296.844 43.6906 294.891 43.9514 291.245 46.5598C286.037 50.342 282.913 56.863 282.913 64.1665C282.913 74.0784 288.902 80.0777 305.046 86.2074C351.785 103.814 370.273 127.55 364.284 162.111C362.201 174.11 359.076 181.283 352.176 190.021C338.115 207.628 315.461 215.192 284.996 212.453C272.237 211.28 257.655 207.237 244.506 201.498C237.085 198.238 237.085 198.107 237.866 193.282C238.256 190.673 239.558 181.153 240.73 172.154C241.902 163.155 242.943 155.721 243.204 155.46C243.334 155.199 247.24 157.155 251.796 159.633C271.456 170.328 300.749 174.371 312.206 167.85C321.971 162.372 325.747 152.2 321.32 143.592C318.456 137.853 312.727 133.68 301.53 129.246C261.691 113.074 245.547 98.3364 241.121 73.9479C239.819 66.6444 239.819 63.6447 241.771 53.8633Z" fill="#FF8300"/>
<path d="M0 209.584V105.901V2.21718L51.1662 2.47804L102.202 2.86928V22.4322V41.9951L71.6066 42.6472L41.0111 43.2993V64.1665V85.0336L67.7008 85.6857L94.3906 86.3378L94.7811 106.162L95.1717 126.116L68.0914 126.377L41.0111 126.768L40.6205 147.244L40.2299 167.85L72.518 168.111L104.806 168.502L105.197 188.978L105.587 209.584H52.7285H0Z" fill="#FF8300"/>
<path d="M400.087 75.1217C400.087 36.9088 400.478 5.21683 400.999 4.82556C401.389 4.30388 410.503 3.9126 421.179 3.9126H440.447V70.2962C440.447 106.683 440.838 139.288 441.229 142.679C441.749 146.07 443.963 151.808 446.176 155.59C451.514 164.459 462.971 170.849 473.647 170.849C487.317 170.849 499.035 164.068 505.023 152.591C507.367 148.287 507.497 143.07 508.148 76.2955L508.799 4.5647H528.328H547.857V80.2081V155.851L544.863 164.72C540.957 175.675 533.276 187.413 525.334 194.325C518.694 199.933 504.503 207.367 495.129 210.106C486.276 212.714 462.19 212.323 452.816 209.454C432.766 203.454 416.492 190.543 408.42 174.11C400.478 158.068 400.087 152.721 400.087 75.1217Z" fill="#FF8300"/>
<path d="M1067.98 211.28V107.596V3.9126H1087.51H1107.04V107.596V211.28H1087.51H1067.98Z" fill="#FF8300"/>
<path d="M1138.29 44.3427V24.1276V3.9126H1209.89H1281.5V24.1276V44.3427H1256.11H1230.72L1230.46 127.42L1230.07 210.627H1209.89H1189.71L1189.45 129.767C1189.19 85.2944 1189.06 47.864 1189.06 46.5598C1189.06 44.4731 1186.98 44.3427 1163.67 44.3427H1138.29Z" fill="#FF8300"/>
<rect x="126.5" y="86" width="92" height="42" fill="#FF8300"/>
<path d="M1377.34 6.0611C1381.8 3.9948 1386.69 2.20403 1388.22 1.79078C1405.66 -2.34183 1426.03 6.33662 1430.64 19.9742C1434.83 32.372 1431.76 41.877 1416.27 65.2951C1409.71 75.3511 1404.55 84.1674 1404.97 84.9939C1405.52 85.6826 1411.94 86.2336 1419.62 86.2336C1430.78 86.2336 1433.43 86.6469 1434.13 88.4377C1435.52 92.1571 1434.97 103.591 1433.29 105.244C1430.92 107.585 1366.59 107.585 1366.59 105.244C1366.59 104.417 1375.24 90.2285 1385.71 73.9736C1405.52 42.9791 1409.85 35.5404 1409.85 31.821C1409.85 30.5812 1408.03 27.6884 1405.8 25.4844C1400.92 20.663 1396.87 20.5252 1386.13 24.3823C1381.94 25.8973 1377.34 27.4122 1376.08 27.8259L1376.08 27.8262C1374.27 28.5149 1373.43 27.4129 1372.31 23.2803C1368.41 9.22943 1368.27 9.9182 1377.34 6.0611Z" fill="#FF8300"/>
<path d="M1334.5 30.0302C1334.5 27.8262 1342.03 6.0611 1343.71 3.30603C1344.13 2.75502 1347.9 2.20402 1352.22 2.20402C1359.48 2.20402 1359.9 2.34179 1359.2 5.23461C1356.97 14.4641 1356.55 18.7344 1358.08 18.7344C1358.92 18.7344 1359.62 20.5252 1359.62 22.867C1359.62 25.6221 1358.92 26.9996 1357.52 26.9996C1356.41 26.9996 1354.87 28.2394 1354.03 29.7547C1352.78 32.0965 1351.1 32.5098 1343.57 32.5098C1335.76 32.5098 1334.5 32.0965 1334.5 30.0302Z" fill="#FF8300"/>
<path d="M1483.01 104.693C1478.43 104.693 1474.08 103.764 1469.96 101.906C1465.86 100.015 1462.23 97.0464 1459.06 92.9993C1455.88 88.9523 1453.39 83.6778 1451.57 77.176C1449.78 70.6742 1448.89 62.7957 1448.92 53.5406C1448.94 45.2806 1449.76 37.8499 1451.38 31.2486C1453.01 24.6472 1455.33 19.0245 1458.33 14.3803C1461.35 9.73617 1464.96 6.18671 1469.15 3.73193C1473.35 1.24399 1478.02 2.28882e-05 1483.17 2.28882e-05C1488.95 2.28882e-05 1494.05 1.44303 1498.45 4.32904C1502.85 7.21505 1506.36 11.0797 1508.97 15.9229C1511.61 20.7329 1513.14 26.0405 1513.58 31.8457H1492.54C1492.05 28.9597 1490.92 26.8532 1489.16 25.5263C1487.42 24.1662 1485.42 23.4862 1483.17 23.4862C1478.69 23.4862 1473.3 31.0496 1473.3 31.0496C1473.3 31.0496 1470.16 42.7263 1470.11 50.9531H1470.57C1471.57 47.8349 1473.08 45.1645 1475.11 42.9419C1477.13 40.7194 1479.48 39.011 1482.17 37.8168C1484.86 36.6225 1487.7 36.0254 1490.69 36.0254C1495.46 36.0254 1499.61 37.4187 1503.17 40.2052C1506.76 42.9917 1509.55 46.8065 1511.54 51.6497C1513.54 56.4929 1514.53 62.0327 1514.5 68.2692C1514.53 75.5671 1513.19 81.9529 1510.51 87.4263C1507.84 92.8998 1504.15 97.1459 1499.41 100.165C1494.67 103.183 1489.21 104.693 1483.01 104.693ZM1482.86 83.7939C1484.99 83.7939 1486.87 83.1637 1488.51 81.9031C1490.17 80.6425 1491.46 78.9176 1492.38 76.7282C1493.33 74.5388 1493.79 72.0508 1493.77 69.2644C1493.79 66.4447 1493.33 63.9567 1492.38 61.8005C1491.46 59.6111 1490.17 57.8862 1488.51 56.6256C1486.87 55.365 1484.99 54.7348 1482.86 54.7348C1481.3 54.7348 1479.85 55.0997 1478.52 55.8295C1477.22 56.5261 1476.08 57.5378 1475.11 58.8647C1474.13 60.1585 1473.36 61.701 1472.8 63.4923C1472.26 65.2505 1471.98 67.1745 1471.96 69.2644C1471.98 72.0508 1472.47 74.5388 1473.42 76.7282C1474.36 78.9176 1475.66 80.6425 1477.29 81.9031C1478.93 83.1637 1480.79 83.7939 1482.86 83.7939Z" fill="#FF8300"/>
</svg>
