<svg width="1800" height="641" viewBox="0 0 1800 641" fill="none" xmlns="http://www.w3.org/2000/svg">
<path d="M216.5 71.5C179.2 76.6 143.9 89.9 112.5 110.6C80.1 131.9 52 161.7 33.7 194.1C2.40001 249.3 -6.59999 310.1 6.80001 374.5C7.20001 376.7 8.10001 378.5 8.70001 378.5C9.70001 378.5 16.8 368.6 53 316.2C58.8 307.9 64.1 301 64.8 301C65.4 301 70.7 308.2 76.5 317C89.8 337.4 89.4 336.6 88.1 339.8C87.6 341.3 79 367 69.1 397C59.2 427 50.8 452.3 50.5 453.2C49.3 456.1 52.3 455.3 54.1 452.2C55 450.7 58 446.3 60.7 442.5C65.4 435.9 77.7 418.2 133 338.5C146 319.8 166.5 290.3 178.5 273C190.5 255.7 211.2 226 224.3 207C237.4 188 248.7 172.5 249.3 172.5C250.3 172.5 277 210.4 309.6 258C314.3 264.9 321 274.5 324.4 279.5C352.6 319.8 385 367.2 385 367.9C385 368.4 382.4 373 379.2 378.1C376 383.3 365.7 399.9 356.3 415C346.9 430.1 331.7 454.5 322.6 469.2C313.5 484 306 496.2 306 496.5C306 498 310.3 495.4 335.7 478.7C371.9 454.8 393.5 440.6 409.5 430.2L422.4 421.8L424.2 424C425.2 425.2 431.5 434.7 438.2 445.1C444.9 455.5 450.6 464 450.9 464C452.1 464 465.3 442.6 470.9 431.6C496.5 381.6 504.2 324.7 493 267.3C483.4 218.3 453.9 166.9 416 133.5C378.7 100.6 337.8 80.9 289 72.4C276 70.1 230.6 69.6 216.5 71.5ZM1196.3 400.7C1195.1 403.9 1188.9 419.3 1182.6 434.9C1176.2 450.7 1171.4 463.8 1171.8 464.2C1172.3 464.7 1175.6 465 1179.1 464.8C1185.4 464.5 1185.5 464.5 1187.3 460.7L1189 456.9L1199.8 457.2L1210.5 457.5L1212.3 461.2L1214 465H1220.8C1224.6 465 1227.9 464.7 1228.2 464.4C1228.5 464.1 1224.3 452.8 1218.8 439.2C1213.2 425.6 1207 410.2 1205 405C1202.9 399.8 1200.6 395.4 1199.8 395.2C1198.9 395 1197.7 397 1196.3 400.7ZM1201 397.4C1201 398.2 1203 403.5 1205.4 409.3C1211.8 424.5 1227 462.6 1227 463.4C1227 463.7 1224.3 464 1221 464C1215.1 464 1215 464 1213.3 460.2L1211.5 456.5H1200H1188.5L1186.7 460.2L1184.8 464H1178.3C1173.5 464 1171.9 463.7 1172.3 462.7C1173.2 460.7 1193.9 410.1 1196.8 402.7C1199.3 396.4 1201 394.3 1201 397.4ZM1195.6 435.2C1194.2 439.2 1193 443 1193 443.6C1193 445.2 1195.4 446 1200.5 446C1206.6 446 1207.4 444.6 1204.8 437.7C1202.2 430.7 1201.1 430.9 1203.5 437.9C1204.4 440.7 1204.9 443.4 1204.5 444C1203.8 445.2 1197.1 445.3 1195.2 444.2C1194.3 443.6 1194.6 441.7 1196.6 436.2C1198.8 430.4 1199.6 429.2 1200.6 430.1C1201.7 431 1202 430.9 1202 429.6C1202 428.7 1201.2 428 1200.1 428C1198.7 428 1197.6 429.8 1195.6 435.2ZM1389.1 417.7C1378.7 443.2 1378.2 444.6 1380.5 440.8C1381.8 438.5 1386.2 427.9 1398.2 398C1399.4 395.1 1398.7 394.1 1404.1 407.3C1405.8 411.6 1407.4 415 1407.6 414.8C1408.2 414.2 1400.4 395.6 1399.4 395.3C1398.8 395.1 1394.2 405.2 1389.1 417.7ZM911.2 430.7L911.5 464.5L911.7 431.2L912 398H917.5H923L923.3 430.7L923.5 463.5V430.5V397.5L917.3 397.2L911 396.9L911.2 430.7ZM945.7 397.7L952 398.1L952.3 430.8L952.5 463.5V430.5V397.5L946 397.4L939.5 397.3L945.7 397.7ZM963.7 397.6C963.3 398 963 400.9 963 404.1V409.9L971.3 410.2L979.5 410.5L980 437.5L980.5 464.5L980.8 437.9C980.9 418.4 980.7 411.1 979.8 410.2C979.1 409.5 975.6 409 971.3 409H964V403.5V398H986.5H1009V403.5V409H1001.7C997.4 409 993.9 409.5 993.2 410.2C992.3 411.1 992.1 418.4 992.2 437.9L992.5 464.5L993 437.5L993.5 410.5L1001.8 410.2L1010.1 409.9L1009.8 403.7L1009.5 397.5L986.9 397.2C974.5 397.1 964.1 397.3 963.7 397.6ZM1047.7 397.7C1047.3 398 1047 412.8 1047 430.5C1047 462.6 1047.2 465.1 1050.5 465C1051 465 1050.7 464.5 1049.8 463.9C1048.1 463 1048 460.3 1048 430.5V398.1L1060.8 397.7L1073.5 397.4L1060.9 397.2C1054 397.1 1048 397.3 1047.7 397.7ZM1114.7 397.6C1113.8 398.6 1113.8 464 1114.8 464C1115.2 464 1115.4 449.2 1115.2 431L1114.9 398H1120.5H1126V410.8C1126 419.4 1126.4 424 1127.2 424.8C1128 425.6 1131.5 425.9 1137.4 425.8L1146.5 425.6L1137 425.1L1127.5 424.5L1127 411L1126.5 397.5L1121 397.2C1117.9 397 1115.1 397.2 1114.7 397.6ZM1148.5 398.2C1147.7 400.5 1147.5 424.8 1148.3 424.3C1148.7 424.1 1149 418 1149 410.9V397.8L1155 398.2C1158.3 398.3 1161 398.2 1161 397.7C1161 396.4 1149 396.9 1148.5 398.2ZM1238.5 398.3C1238.2 399 1238.1 414.1 1238.2 432L1238.5 464.5L1242.9 464.8C1252.1 465.5 1252 465.7 1252 451.4V438.9L1255.1 439.2C1258 439.5 1258.8 440.4 1264.7 451.5C1268.3 458.1 1271.7 463.8 1272.4 464.2C1274.1 465.3 1284.8 465.1 1285.5 464C1285.9 463.4 1283 457.4 1279.1 450.7C1275.2 443.9 1272 438.2 1272 437.8C1272 437.5 1273.8 436.1 1276 434.6C1283.9 429.4 1286.7 417.8 1282.3 407.9C1280.4 403.7 1274.6 398.1 1273.4 399.3C1273.1 399.6 1274.3 400.6 1276 401.6C1286 407.6 1285.4 427.6 1275 434C1272.8 435.4 1271 437.1 1271 437.8C1271 438.5 1272.1 440.8 1273.5 443C1276.4 447.6 1285 463.1 1285 463.7C1285 463.9 1282.2 464 1278.8 463.8L1272.5 463.5L1269.7 458.5C1268.1 455.7 1264.9 450.1 1262.7 446C1258.7 438.9 1258.3 438.5 1255 438.5H1251.5L1251 451L1250.5 463.5L1244.8 463.8L1239 464.1V431V397.9L1255.4 398.2C1264.4 398.4 1271.3 398.2 1270.7 397.8C1270 397.4 1262.6 397 1254.2 397C1242.9 397 1238.8 397.3 1238.5 398.3ZM1291.4 399.2C1293.3 406.5 1318 465.5 1319.1 465.5C1320.1 465.5 1328 448.2 1328 446C1328 444.6 1325.7 449.4 1322.9 456.7C1321.1 461.3 1319.5 465 1319.1 465C1318.7 465 1297.5 413.3 1292.4 399.7C1291.9 398.2 1292.5 398 1298.3 398H1304.8L1306 401.6C1306.7 403.5 1307.4 404.9 1307.7 404.7C1307.9 404.4 1307.4 402.6 1306.6 400.6L1305.1 397H1297.9C1291 397 1290.8 397.1 1291.4 399.2ZM1359 399.2C1355.2 408.3 1351.1 419.4 1351.4 419.7C1351.6 420 1353.7 415.2 1356.1 409.1L1360.4 398H1366.8C1374.3 398 1374.2 396.6 1367 414C1362.2 425.6 1360.3 430.9 1361.3 430C1362.1 429.2 1374 399.5 1374 398.2C1374 397.4 1371.6 397 1367 397C1360.6 397 1359.9 397.2 1359 399.2ZM1437.5 398.2C1437.2 398.9 1437.1 414.1 1437.2 432L1437.5 464.5L1447.5 464.8C1466.3 465.4 1477.7 461.6 1484.4 452.2C1497.2 434.7 1491.8 409.4 1473.2 400.3C1467.9 397.7 1466.5 397.5 1452.8 397.2C1441.1 396.9 1437.9 397.1 1437.5 398.2ZM1473.6 402C1482.3 406.5 1487.1 413 1489.5 423.7C1491.5 432.2 1490.5 439.4 1486.3 447.2C1479.5 459.8 1469 464.4 1448.5 463.8L1438.9 463.5L1438.7 430.7L1438.5 397.8L1452.6 398.2C1466.5 398.5 1466.8 398.6 1473.6 402ZM1451.1 410.4C1450.3 411.3 1450 417.8 1450.2 431.6L1450.5 451.5H1458.2C1465.2 451.5 1466.1 451.3 1469.7 448.4C1475.5 443.7 1478 438.7 1478 431.3C1478 427.9 1477.5 423.9 1476.9 422.3C1475.4 418.3 1470.2 413.1 1465.5 410.9C1460.7 408.7 1452.7 408.4 1451.1 410.4ZM1466.3 412.4C1473.2 415.3 1477.5 423.5 1476.8 432.4C1476.2 439.4 1473.4 444.7 1468.7 447.8C1465.3 450 1463.5 450.5 1458.1 450.5H1451.5L1451.2 432C1451.1 421.9 1451.2 413 1451.4 412.3C1452.1 410.5 1462.1 410.6 1466.3 412.4ZM1078.7 399.9C1086.9 402.7 1091.1 406.1 1095.3 413.1C1099.1 419.6 1100.3 420.5 1097.4 414.7C1094.1 408.4 1089.9 404.1 1083.8 401.1C1080.4 399.4 1076.7 398 1075.6 398C1074.4 398.1 1075.8 398.9 1078.7 399.9ZM1331.6 399.8C1330.4 401.8 1322 424.3 1322.3 424.7C1322.6 424.9 1324.9 419.4 1327.5 412.5C1330.1 405.6 1332.4 400 1332.5 400C1332.7 400 1333.8 402.7 1335 406C1336.3 409.4 1337.4 411.9 1337.6 411.7C1338.2 411.1 1333.6 399 1332.8 399C1332.4 399 1331.9 399.4 1331.6 399.8ZM940.4 430.5C940.4 447.5 940.6 454.7 940.7 446.3C940.9 438 940.9 424 940.7 415.3C940.6 406.6 940.4 413.4 940.4 430.5ZM1160.4 430.5C1160.4 447.5 1160.6 454.7 1160.7 446.3C1160.9 438 1160.9 424 1160.7 415.3C1160.6 406.6 1160.4 413.4 1160.4 430.5ZM1309 408.5C1309 409 1309.5 410.2 1310 411C1310.5 411.8 1311 412 1311 411.5C1311 410.9 1310.5 409.8 1310 409C1309.5 408.2 1309 407.9 1309 408.5ZM1061.2 409.8C1060.3 410.5 1060 415.4 1060.2 431.1L1060.5 451.5H1068.2C1075.2 451.5 1076.1 451.3 1079.7 448.4C1092.8 438 1090.1 416.9 1074.8 410.6C1070.8 408.9 1063.3 408.5 1061.2 409.8ZM1074.8 411.5C1085.7 416.1 1090.3 429.5 1084.9 440.7C1081.5 447.7 1077.1 450.4 1068.3 450.8L1061 451.2V431.3C1061 420.3 1061.3 411 1061.7 410.7C1062.9 409.4 1071 410 1074.8 411.5ZM1251.4 410.3C1251.1 411.1 1251 415 1251.2 419.1L1251.5 426.5L1256.9 426.8C1259.9 427 1263.4 426.9 1264.7 426.5C1271.1 424.9 1273.2 416.7 1268.5 411.6C1266.3 409.3 1265.4 409 1259 409C1254 409 1251.8 409.4 1251.4 410.3ZM1267.4 412.1C1269.4 413.7 1270 415 1270 418C1270 423.7 1266.6 426 1258.4 426H1252V418.7C1252 414.6 1252.3 411 1252.7 410.7C1253 410.3 1255.9 410 1259 410C1263.3 410 1265.4 410.5 1267.4 412.1ZM1311.2 414C1314.7 424.5 1317.5 431 1318.6 431C1320 431 1322.5 427.2 1321.7 426.3C1321.4 426.1 1320.9 426.8 1320.5 428C1319.4 431.5 1317.9 429.8 1314.8 421.5C1313.2 417.1 1311.6 413.3 1311.3 413C1311 412.7 1310.9 413.2 1311.2 414ZM1339 415.5C1339 416.7 1344.2 429.6 1345 430.4C1346.2 431.6 1349 429.3 1348.9 427.1C1348.9 426 1348.6 426.1 1347.8 427.7C1347.2 429 1346.4 430 1346 430C1345.6 430 1344 426.6 1342.5 422.5C1340.2 416 1339 413.7 1339 415.5ZM1408 416.5C1408 417 1408.5 418.2 1409 419C1409.5 419.8 1410 420 1410 419.5C1410 418.9 1409.5 417.8 1409 417C1408.5 416.2 1408 415.9 1408 416.5ZM630.2 419.1C620.2 425.6 621.1 442.3 631.7 447.6C635.3 449.4 640.2 449.5 744.5 449.8C823.8 450 854.6 449.8 857.5 449C861.9 447.7 866.4 444 868.6 439.8C871.8 433.6 869.2 424 863.2 419.5C860.5 417.5 858.7 417.5 747 417.3L633.5 417L630.2 419.1ZM862 420.2C871.1 426.5 871.1 439.5 862 445.7L858.7 448H746.5H634.3L630.9 445.7C629 444.5 626.7 441.9 625.8 440C622.3 433 624.5 424.6 630.9 420.3L634.3 418H746.5H858.7L862 420.2ZM1537.9 419.2C1531.1 423.1 1527.9 433.1 1531.4 439.8C1533.6 444 1538.1 447.7 1542.5 449C1545.4 449.8 1576.2 450 1655.5 449.8C1759.8 449.5 1764.7 449.4 1768.3 447.6C1779.3 442.2 1779.7 424.6 1769 418.9C1765.7 417.1 1760.7 417 1653.5 417H1541.5L1537.9 419.2ZM1769.1 420.3C1776.6 425.3 1778.1 435.6 1772.3 442.8C1770.7 444.8 1768.2 446.8 1766.9 447.1C1765.6 447.5 1714.6 447.8 1653.5 447.9C1549.7 448 1542.3 447.9 1539 446.2C1528.7 441.1 1528.3 426.5 1538.3 420.1C1541.5 418 1542.1 418 1653.6 418H1765.7L1769.1 420.3ZM1099.1 421.6C1099.1 422.7 1099.4 423 1099.7 422.2C1100 421.5 1099.9 420.6 1099.6 420.3C1099.3 419.9 1099 420.5 1099.1 421.6ZM1349.6 422.5C1348.7 425.1 1348.9 425.7 1350.1 423.7C1350.7 422.7 1351 421.6 1350.7 421.4C1350.5 421.1 1350 421.6 1349.6 422.5ZM1410 421.3C1410 422.6 1417.2 440.1 1417.6 439.7C1417.8 439.5 1416.4 435.3 1414.4 430.4C1410.9 421.9 1410 419.9 1410 421.3ZM1100.3 431C1100.3 435.1 1100.5 436.8 1100.7 434.7C1100.9 432.7 1100.9 429.3 1100.7 427.2C1100.5 425.2 1100.3 426.9 1100.3 431ZM1397.7 428.7C1397.3 429 1397 429.8 1397 430.4C1397 431 1397.5 430.8 1398 430C1399.2 428.1 1400.4 429.4 1402 434.3C1402.7 436.4 1403.4 438 1403.6 437.7C1403.8 437.5 1403.3 435.2 1402.4 432.7C1400.9 428.4 1399.3 427 1397.7 428.7ZM1356.3 440.8C1352.2 450.6 1350.3 455.9 1351.3 455C1352.1 454.2 1361.1 431.8 1360.7 431.4C1360.5 431.2 1358.6 435.4 1356.3 440.8ZM1394.2 437.7C1391.5 444.8 1392.3 446 1399.7 446C1405.6 446 1407.1 444.6 1405.2 440.7C1404.2 438.7 1404.2 438.7 1404.3 441.5C1404.5 444.4 1404.4 444.5 1399.6 444.8C1396.9 445 1394.3 444.7 1393.9 444.3C1393.4 443.8 1393.9 441 1395.1 438.1C1396.2 435.2 1396.9 432.6 1396.7 432.4C1396.5 432.1 1395.3 434.5 1394.2 437.7ZM1331.5 436.8C1330.4 437.9 1327.9 444.3 1328.4 444.7C1328.6 445 1329.4 443.5 1330.1 441.6C1330.8 439.6 1331.9 438 1332.6 438C1333.2 438 1334.8 440.7 1336 444C1337.3 447.4 1338.4 449.9 1338.6 449.7C1338.8 449.5 1338 446.6 1336.7 443.2C1334.6 437.3 1333 435.3 1331.5 436.8ZM1127.2 438.2C1126.4 439 1126.1 443.3 1126.2 451.9L1126.4 464.5L1127 451.5L1127.5 438.5H1137.5H1147.5L1148 451.5L1148.6 464.5L1148.8 451.4C1149 440.2 1148.8 438.1 1147.4 437.6C1144.5 436.5 1128.5 436.9 1127.2 438.2ZM1099.1 439.7C1099 440.3 1098.7 441.7 1098.4 442.7C1097.9 444.4 1097.9 444.4 1099 442.7C1099.6 441.7 1099.9 440.4 1099.6 439.7C1099.3 438.8 1099.1 438.8 1099.1 439.7ZM1419 443.5C1419 444 1419.5 445.2 1420 446C1420.5 446.8 1421 447 1421 446.5C1421 445.9 1420.5 444.8 1420 444C1419.5 443.2 1419 442.9 1419 443.5ZM1374.6 453.6C1372.6 458.9 1371 463.4 1371.2 463.6C1371.4 463.8 1373.3 459.6 1375.4 454.4C1377.4 449.1 1379 444.6 1378.8 444.4C1378.6 444.2 1376.7 448.4 1374.6 453.6ZM1094.2 450.3C1090 456.8 1090.6 457.4 1094.9 450.9C1096.8 448.2 1098.1 445.8 1097.9 445.6C1097.7 445.4 1096 447.5 1094.2 450.3ZM1421.5 450C1422.7 454 1426.2 462.1 1426.6 461.7C1427 461.3 1422.1 448.8 1421.3 448C1421 447.7 1421.1 448.6 1421.5 450ZM1339.1 451.5C1339.1 452 1339.7 453.6 1340.5 455C1341.3 456.4 1341.9 457 1341.9 456.5C1341.9 455.9 1341.3 454.4 1340.5 453C1339.7 451.6 1339.1 450.9 1339.1 451.5ZM1086.7 457.9C1083.3 460.1 1082.4 461 1083.6 461C1084.1 461 1085.9 459.9 1087.5 458.5C1091 455.7 1090.7 455.4 1086.7 457.9ZM1349.6 457.5C1348.7 460.1 1348.9 460.7 1350.1 458.7C1350.7 457.7 1351 456.6 1350.7 456.4C1350.5 456.1 1350 456.6 1349.6 457.5ZM1387.3 457.2C1386 459.1 1384 464 1384.6 464C1384.9 464 1385.8 462.4 1386.6 460.5L1388 457H1398.8C1406 457 1410.1 457.4 1411 458.2C1412.2 459.3 1412.2 459.2 1411.1 457.7C1410 456.3 1408.1 456 1399 456C1391.6 456 1388 456.4 1387.3 457.2ZM1342 458.1C1341.9 459.6 1345.1 466 1346 466C1347 466 1349 462.8 1349 461.3C1348.9 460.9 1348.3 461.6 1347.6 462.9L1346.2 465.4L1344.2 461.4C1343 459.3 1342.1 457.8 1342 458.1ZM1412 460.5C1412 461 1412.5 462.2 1413 463C1413.5 463.8 1414 464 1414 463.5C1414 462.9 1413.5 461.8 1413 461C1412.5 460.2 1412 459.9 1412 460.5ZM1078.5 462C1077.2 462.6 1077 462.9 1078 462.9C1078.8 462.9 1080.2 462.5 1081 462C1082.8 460.8 1081.2 460.8 1078.5 462ZM1072.3 463.7C1073.2 463.9 1074.6 463.9 1075.3 463.7C1075.9 463.4 1075.2 463.2 1073.5 463.2C1071.9 463.2 1071.3 463.4 1072.3 463.7Z" fill="#FF8300"/>
<path d="M1196.8 402.7C1193.9 410.1 1173.2 460.7 1172.3 462.7C1171.9 463.7 1173.5 464 1178.3 464H1184.8L1186.7 460.2L1188.5 456.5H1200H1211.5L1213.3 460.2C1215 464 1215.1 464 1221 464C1224.3 464 1227 463.7 1227 463.4C1227 462.6 1211.8 424.5 1205.4 409.3C1203 403.5 1201 398.2 1201 397.4C1201 394.3 1199.3 396.4 1196.8 402.7ZM1202 429.3C1202 430 1203.1 433.5 1204.5 437C1207.5 444.5 1206.8 446 1200.5 446C1195.4 446 1193 445.2 1193 443.6C1193 443 1194.2 439.2 1195.6 435.2C1197.6 429.8 1198.7 428 1200.1 428C1201.2 428 1202 428.6 1202 429.3ZM1398.1 398.1C1397.6 399.4 1393.5 409.5 1389 420.5C1379.6 443.4 1373.1 459.7 1372.3 462.2C1371.8 463.8 1372.5 464 1377.9 464C1384 464 1384 464 1385.8 460.2L1387.5 456.5H1399H1410.5L1412.5 460.2C1414.5 464 1414.6 464 1420.8 464C1424.2 464 1427 463.8 1427 463.5C1427 463.1 1426.3 461.6 1425.5 460.1C1424.7 458.5 1422.7 453.7 1421.1 449.3C1419.4 445 1415.1 434.3 1411.5 425.5C1407.9 416.7 1403.8 406.6 1402.4 403C1399.3 395.1 1399.3 395.1 1398.1 398.1ZM1403.4 435.6C1404.9 439.8 1405.9 443.8 1405.6 444.6C1404.9 446.5 1394.7 446.5 1393.1 444.7C1392.1 443.4 1392.2 442.9 1396.9 430.7C1398.7 426.1 1400.6 427.5 1403.4 435.6ZM912 431V464H917.5H923V431V398H917.5H912V431ZM940.7 430.7L940.9 463.5L946.5 463.8L952 464.1V431V398H946.3H940.5L940.7 430.7ZM964 403.5V409H971.3C975.6 409 979.1 409.5 979.8 410.2C980.7 411.1 981 418.6 981 437.7V464H986.5H992V437.7C992 418.6 992.3 411.1 993.2 410.2C993.9 409.5 997.4 409 1001.7 409H1009V403.5V398H986.5H964V403.5ZM1048.2 430.7L1048.5 463.5L1058.3 463.8C1079.5 464.4 1090.2 459.5 1096.8 446C1098.8 441.9 1099.6 438.6 1099.8 433C1100.3 423.5 1099.1 419 1094.1 411.3C1090.7 406.1 1089.2 404.7 1083.4 401.9C1076.7 398.6 1076.1 398.5 1062.3 398.2L1048 397.8L1048.2 430.7ZM1074.8 410.6C1090.1 416.9 1092.8 438 1079.7 448.4C1076.1 451.3 1075.2 451.5 1068.2 451.5H1060.5L1060.2 431.1C1060 415.4 1060.3 410.5 1061.2 409.8C1063.3 408.5 1070.8 408.9 1074.8 410.6ZM1115.2 430.7L1115.5 463.5L1120.8 463.8L1126 464.1V451.8C1126 443.5 1126.4 439 1127.2 438.2C1128.5 436.9 1144.5 436.5 1147.4 437.6C1148.7 438.1 1149 440.3 1149 451.2V464.1L1154.6 463.8L1160.1 463.5V431L1160 398.5L1154.5 398.2L1149 397.9V410.9C1149 422.8 1148.8 424 1147.1 425C1144.3 426.4 1128.7 426.3 1127.2 424.8C1126.4 424 1126 419.4 1126 410.8V398H1120.5H1115L1115.2 430.7ZM1239 431V464.1L1244.8 463.8L1250.5 463.5L1251 451L1251.5 438.5H1255C1258.3 438.5 1258.7 438.9 1262.7 446C1264.9 450.1 1268.1 455.7 1269.7 458.5L1272.5 463.5L1278.8 463.8C1282.2 464 1285 463.9 1285 463.7C1285 463.1 1276.4 447.6 1273.5 443C1272.1 440.8 1271 438.5 1271 437.8C1271 437.1 1272.8 435.4 1275 434C1285.8 427.4 1285.9 408.1 1275.3 401C1271.7 398.6 1270.6 398.5 1255.3 398.2L1239 397.9V431ZM1268.5 411.6C1273.2 416.7 1271.1 424.9 1264.7 426.5C1263.4 426.9 1259.9 427 1256.9 426.8L1251.5 426.5L1251.2 419.1C1251 415 1251.1 411.1 1251.4 410.3C1251.8 409.4 1254 409 1259 409C1265.4 409 1266.3 409.3 1268.5 411.6ZM1292.4 399.7C1297.6 413.5 1318.7 465 1319.1 465C1319.5 465 1320.8 462.2 1322.1 458.7C1325.3 450.1 1330.7 437.9 1331.7 436.9C1333.2 435.4 1334.6 437.3 1337 444C1338.3 447.6 1340.9 453.9 1342.7 458C1346.6 466.6 1346.3 466.8 1351.4 453.2C1355.1 443.5 1361 428.9 1367.5 413C1374.2 396.7 1374.2 398 1366.8 398H1360.5L1354.7 412.8C1351.5 420.9 1348.5 428.2 1348.1 429C1346.5 431.9 1344.6 430.4 1342.3 424.5C1335 405.9 1332.5 399.9 1332.2 400.7C1323.7 422.6 1320.2 430.5 1318.9 430.8C1317.7 431 1316.7 429.3 1315 424.8C1313.8 421.3 1311 413.9 1308.8 408.2L1304.7 398H1298.3C1292.5 398 1291.9 398.2 1292.4 399.7ZM1438.7 430.7L1438.9 463.5L1448.5 463.8C1469 464.4 1479.5 459.8 1486.3 447.2C1490.5 439.4 1491.5 432.2 1489.5 423.7C1487.1 413 1482.3 406.5 1473.6 402C1466.8 398.6 1466.5 398.5 1452.6 398.2L1438.5 397.8L1438.7 430.7ZM1465.5 410.9C1470.2 413.1 1475.4 418.3 1476.9 422.3C1477.5 423.9 1478 427.9 1478 431.3C1478 438.7 1475.5 443.7 1469.7 448.4C1466.1 451.3 1465.2 451.5 1458.2 451.5H1450.5L1450.2 431.6C1450 417.8 1450.3 411.3 1451.1 410.4C1452.7 408.4 1460.7 408.7 1465.5 410.9ZM630.9 420.3C629 421.5 626.7 424.1 625.8 426C622.3 433 624.5 441.4 630.9 445.7L634.3 448H746.5H858.7L862 445.7C871.1 439.5 871.1 426.5 862 420.2L858.7 418H746.5H634.3L630.9 420.3ZM1538.3 420.1C1528.3 426.5 1528.7 441.1 1539 446.2C1542.3 447.9 1549.7 448 1653.5 447.9C1714.6 447.8 1765.6 447.5 1766.9 447.1C1768.2 446.8 1770.7 444.8 1772.3 442.8C1778.1 435.6 1776.6 425.3 1769.1 420.3L1765.7 418H1653.6C1542.1 418 1541.5 418 1538.3 420.1Z" fill="#F8F6FB"/>
<path d="M1101.14 235.422C1101.01 156.91 1101.27 130.826 1102.44 130.174C1103.61 129.391 1109.08 129.391 1114.16 130.174C1114.94 130.304 1184.07 207.252 1190.45 215.207C1192.14 217.294 1194.23 218.99 1195.27 218.99C1196.18 218.99 1203.34 211.816 1211.02 203.078C1254.12 154.432 1270.78 135.782 1274.04 132.782C1277.42 129.522 1280.81 128.87 1288.75 130.174C1289.27 130.174 1289.53 177.386 1289.4 234.901L1289.01 339.627H1268.83H1248.65L1248.26 283.156C1248.13 250.681 1247.48 226.815 1246.83 226.815C1246.17 226.815 1241.88 230.727 1237.32 235.553C1232.76 240.378 1224.04 249.638 1217.92 256.159C1211.8 262.55 1204.38 270.505 1201.52 273.635L1196.31 279.374L1193.19 276.896C1191.49 275.591 1180.17 263.854 1167.93 250.812C1155.82 237.77 1145.01 227.076 1144.23 226.945C1142.93 226.815 1142.54 239.335 1142.28 283.156L1141.89 339.627H1121.71H1101.53L1101.14 235.422Z" fill="#FF8300"/>
<path d="M1336.27 235.944C1336.01 178.559 1336.14 130.956 1336.27 130.304C1336.66 129.391 1339.65 129 1343.43 129.261L1350.07 129.652L1367.12 148.693C1376.37 159.127 1394.34 179.342 1406.83 193.427C1419.33 207.513 1430.01 218.99 1430.53 218.99C1431.31 218.99 1443.81 205.165 1493.41 149.476L1511.64 129H1517.89H1524.01V234.64V340.41L1503.57 340.019L1483 339.627L1482.35 283.025L1481.7 226.423L1473.75 234.77C1469.46 239.335 1458.39 251.073 1449.28 260.724C1440.03 270.375 1431.83 278.461 1430.92 278.722C1430.01 278.982 1418.29 267.506 1404.88 253.29C1391.47 239.074 1380.01 227.467 1379.36 227.467C1378.58 227.467 1377.93 248.986 1377.8 283.547L1377.54 339.627L1357.1 340.019L1336.53 340.41L1336.27 235.944Z" fill="#FF8300"/>
<path d="M747.271 182.863C752.349 156.779 767.972 139.694 792.058 133.565C802.474 130.956 824.867 131.739 839.97 135.391C846.609 136.956 852.859 139.042 853.9 139.825C855.723 141.259 855.723 143.216 853.64 159.909C852.468 170.082 851.036 178.82 850.645 179.212C850.255 179.603 845.307 178.429 839.709 176.473C831.116 173.473 827.08 172.821 815.103 172.821C802.344 172.691 800.391 172.951 796.745 175.56C791.537 179.342 788.413 185.863 788.413 193.166C788.413 203.078 794.402 209.078 810.546 215.207C857.285 232.814 875.773 256.55 869.784 291.111C867.701 303.11 864.576 310.283 857.676 319.021C843.615 336.628 820.961 344.192 790.496 341.453C777.737 340.28 763.155 336.237 750.006 330.498C742.585 327.238 742.585 327.107 743.366 322.282C743.756 319.673 745.058 310.153 746.23 301.154C747.402 292.155 748.443 284.721 748.704 284.46C748.834 284.199 752.74 286.155 757.296 288.633C776.956 299.328 806.249 303.371 817.706 296.85C827.471 291.372 831.247 281.2 826.82 272.592C823.956 266.853 818.227 262.68 807.031 258.246C767.191 242.074 751.047 227.336 746.621 202.948C745.319 195.644 745.319 192.645 747.271 182.863Z" fill="#FF8300"/>
<path d="M612 338.584V234.901V131.217L663.166 131.478L714.202 131.869V151.432V170.995L683.607 171.647L653.011 172.299V193.166V214.034L679.701 214.686L706.391 215.338L706.781 235.162L707.172 255.116L680.091 255.377L653.011 255.768L652.621 276.244L652.23 296.85L684.518 297.111L716.806 297.502L717.197 317.978L717.587 338.584H664.729H612Z" fill="#FF8300"/>
<path d="M905.587 204.122C905.587 165.909 905.978 134.217 906.499 133.826C906.889 133.304 916.003 132.913 926.679 132.913H945.947V199.296C945.947 235.683 946.338 268.288 946.729 271.679C947.249 275.07 949.463 280.808 951.676 284.59C957.014 293.459 968.471 299.849 979.147 299.849C992.817 299.849 1004.53 293.068 1010.52 281.591C1012.87 277.287 1013 272.07 1013.65 205.295L1014.3 133.565H1033.83H1053.36V209.208V284.851L1050.36 293.72C1046.46 304.675 1038.78 316.413 1030.83 323.325C1024.19 328.933 1010 336.367 1000.63 339.106C991.776 341.714 967.69 341.323 958.316 338.454C938.266 332.454 921.992 319.543 913.92 303.11C905.978 287.068 905.587 281.721 905.587 204.122Z" fill="#FF8300"/>
<path d="M1573.48 340.28V236.596V132.913H1593.01H1612.54V236.596V340.28H1593.01H1573.48Z" fill="#FF8300"/>
<path d="M1643.79 173.343V153.128V132.913H1715.39H1787V153.128V173.343H1761.61H1736.22L1735.96 256.42L1735.57 339.627H1715.39H1695.21L1694.95 258.767C1694.69 214.294 1694.56 176.864 1694.56 175.56C1694.56 173.473 1692.48 173.343 1669.17 173.343H1643.79Z" fill="#FF8300"/>
</svg>
